<svg width="200" height="200" viewBox="0 0 200 200" fill="none" xmlns="http://www.w3.org/2000/svg">
<g clip-path="url(#clip0_196_263)">
<circle cx="100" cy="100" r="100" transform="rotate(90 100 100)" fill="url(#paint0_radial_196_263)"/>
<rect width="172" height="15" transform="translate(15 136)" fill="white"/>
<path d="M9.056 72H41.984V84.288H9.056V72ZM41.984 48.192V60.864C41.152 60.864 40.384 60.864 39.68 60.864C39.04 60.864 38.432 60.864 37.856 60.864C34.848 60.864 32.864 61.568 31.904 62.976C30.944 64.384 30.464 66.112 30.464 68.16V120H15.68V68.16C15.68 63.36 16.48 59.456 18.08 56.448C19.68 53.44 21.952 51.232 24.896 49.824C27.84 48.352 31.328 47.616 35.36 47.616C36.384 47.616 37.44 47.68 38.528 47.808C39.68 47.872 40.832 48 41.984 48.192ZM59.309 121.248C54.253 121.248 50.221 119.872 47.213 117.12C44.269 114.304 42.797 110.56 42.797 105.888C42.797 101.472 44.301 97.952 47.309 95.328C50.381 92.704 54.797 91.168 60.557 90.72L73.997 89.664V88.896C73.997 87.296 73.677 85.984 73.037 84.96C72.397 83.872 71.469 83.072 70.253 82.56C69.101 81.984 67.629 81.696 65.837 81.696C62.701 81.696 60.301 82.272 58.637 83.424C57.037 84.576 56.237 86.24 56.237 88.416H43.949C43.949 84.768 44.877 81.6 46.733 78.912C48.589 76.224 51.213 74.144 54.605 72.672C58.061 71.2 62.061 70.464 66.605 70.464C71.277 70.464 75.213 71.296 78.413 72.96C81.677 74.624 84.141 77.056 85.805 80.256C87.533 83.456 88.397 87.36 88.397 91.968V120H75.341L74.381 113.664C73.613 115.84 71.789 117.664 68.909 119.136C66.093 120.544 62.893 121.248 59.309 121.248ZM64.493 110.304C67.309 110.304 69.613 109.632 71.405 108.288C73.197 106.88 74.093 104.8 74.093 102.048V99.456L66.605 100.128C63.405 100.384 61.133 100.928 59.789 101.76C58.509 102.528 57.869 103.68 57.869 105.216C57.869 106.944 58.413 108.224 59.501 109.056C60.589 109.888 62.253 110.304 64.493 110.304ZM107.877 120L89.1575 72H105.093L110.949 88.8C112.165 92.32 113.189 95.488 114.021 98.304C114.917 101.056 115.462 102.976 115.653 104.064C115.973 102.656 116.581 100.544 117.477 97.728C118.438 94.912 119.526 91.936 120.741 88.8L127.174 72H142.534L122.47 120H107.877ZM145.741 120V72H160.525V120H145.741ZM153.037 64.512C150.669 64.512 148.653 63.712 146.989 62.112C145.389 60.448 144.589 58.432 144.589 56.064C144.589 53.696 145.389 51.712 146.989 50.112C148.653 48.512 150.669 47.712 153.037 47.712C155.341 47.712 157.293 48.512 158.893 50.112C160.557 51.712 161.389 53.696 161.389 56.064C161.389 58.432 160.557 60.448 158.893 62.112C157.293 63.712 155.341 64.512 153.037 64.512ZM177.951 121.248C175.519 121.248 173.439 120.416 171.711 118.752C169.983 117.024 169.119 114.976 169.119 112.608C169.119 110.176 169.983 108.128 171.711 106.464C173.439 104.736 175.519 103.872 177.951 103.872C180.319 103.872 182.367 104.736 184.095 106.464C185.887 108.128 186.783 110.176 186.783 112.608C186.783 114.976 185.887 117.024 184.095 118.752C182.367 120.416 180.319 121.248 177.951 121.248Z" fill="white"/>
</g>
<defs>
<radialGradient id="paint0_radial_196_263" cx="0" cy="0" r="1" gradientUnits="userSpaceOnUse" gradientTransform="translate(100 100) rotate(65.1169) scale(87.5006 92.1262)">
<stop stop-color="#9C6BC7" stop-opacity="0.16"/>
<stop offset="1" stop-color="#806399" stop-opacity="0"/>
</radialGradient>
<clipPath id="clip0_196_263">
<rect width="200" height="200" fill="white"/>
</clipPath>
</defs>
</svg>
